<?xml version="1.0" encoding="UTF-8" standalone="no"?>
<svg
   xmlns:dc="http://purl.org/dc/elements/1.1/"
   xmlns:cc="http://creativecommons.org/ns#"
   xmlns:rdf="http://www.w3.org/1999/02/22-rdf-syntax-ns#"
   xmlns:svg="http://www.w3.org/2000/svg"
   xmlns="http://www.w3.org/2000/svg"
   xmlns:sodipodi="http://sodipodi.sourceforge.net/DTD/sodipodi-0.dtd"
   xmlns:inkscape="http://www.inkscape.org/namespaces/inkscape"
   sodipodi:docname="EI Logo White.svg"
   width="600"
   height="299.99982"
   viewBox="0 0 158.75 79.374954"
   version="1.1"
   id="svg8"
   inkscape:version="1.0 (4035a4fb49, 2020-05-01)">
  <defs
     id="defs2" />
  <sodipodi:namedview
     inkscape:window-maximized="1"
     inkscape:window-y="-8"
     inkscape:window-x="-8"
     inkscape:window-height="1002"
     inkscape:window-width="1920"
     units="px"
     id="base"
     pagecolor="#ffffff"
     bordercolor="#666666"
     borderopacity="1.0"
     inkscape:pageopacity="0.0"
     inkscape:pageshadow="2"
     inkscape:zoom="0.35"
     inkscape:cx="362.85714"
     inkscape:cy="187.14276"
     inkscape:document-units="px"
     inkscape:current-layer="layer1"
     inkscape:document-rotation="0"
     showgrid="false"
     showborder="false"
     inkscape:showpageshadow="false" />
  <metadata
     id="metadata5">
    <rdf:RDF>
      <cc:Work
         rdf:about="">
        <dc:format>image/svg+xml</dc:format>
        <dc:type
           rdf:resource="http://purl.org/dc/dcmitype/StillImage" />
        <dc:title></dc:title>
      </cc:Work>
    </rdf:RDF>
  </metadata>
  <g
     transform="translate(-9.8273812,-98.651811)"
     inkscape:label="Layer 1"
     inkscape:groupmode="layer"
     id="layer1">
    <path
       inkscape:export-ydpi="96"
       inkscape:export-xdpi="96"
       inkscape:export-filename="C:\Users\Admin\Desktop\EI Logo Presentation.png"
       id="path968"
       style="opacity:1;fill:#ffffff;fill-opacity:1;stroke:none;stroke-width:2.64586;stroke-linecap:square;stop-color:#000000"
       d="m 89.20268,98.651851 c -10.525699,-0.015 -20.633899,4.173299 -28.0968,11.636239 -3.731501,3.71868 -8.768699,5.79988 -14.019498,5.79988 -13.868501,0 -27.207001,5.32802 -37.2587008,14.88285 H 47.086382 c 1.042897,0 2.0852,-0.0466 3.124099,-0.141 8.0816,-0.73004 15.652398,-4.26704 21.414698,-10.01375 4.846,-4.8736 11.211102,-7.2991 17.577501,-7.2875 6.366201,-0.015 12.7315,2.4139 17.5776,7.2875 5.762,5.74671 13.3326,9.28371 21.4141,10.01375 1.0387,0.093 2.0813,0.141 3.1242,0.141 h 37.2588 c -10.0518,-9.55505 -23.3904,-14.88285 -37.2588,-14.88285 -5.2508,0 -10.2878,-2.0812 -14.0192,-5.79988 -7.4632,-7.46294 -17.571001,-11.645139 -28.0967,-11.636239 z M 9.8273812,145.70772 c 10.0518998,9.55501 23.3901998,14.88302 37.2585988,14.88302 v -1.6e-4 c 5.2511,0 10.2881,2.08109 14.0198,5.79989 7.462901,7.46296 17.5711,11.64495 28.0968,11.63625 10.5255,0.015 20.6336,-4.17329 28.0968,-11.63625 3.7314,-3.7188 8.7684,-5.79989 14.0192,-5.79989 13.8684,0 27.207,-5.328 37.2588,-14.88286 h -37.2588 c -1.0429,0 -2.0855,0.048 -3.1242,0.141 -8.0815,0.73005 -15.6523,4.26706 -21.4145,10.01371 -4.8458,4.87365 -11.2111,7.29914 -17.5773,7.28758 -6.366399,0.015 -12.7317,-2.41393 -17.577599,-7.28758 -5.762199,-5.74665 -13.333,-9.28366 -21.414801,-10.01371 -1.038699,-0.093 -2.080999,-0.141 -3.1242,-0.141 z" />
  </g>
</svg>
